<svg width="14" height="14" viewBox="0 0 14 14" fill="none" xmlns="http://www.w3.org/2000/svg">
<path d="M8.31252 2.84375C8.31263 2.48284 8.41195 2.12891 8.59962 1.82063C8.78728 1.51235 9.05608 1.26158 9.37663 1.09575C9.69719 0.929907 10.0572 0.855375 10.4172 0.880294C10.7773 0.905213 11.1235 1.02862 11.4182 1.23704C11.7128 1.44546 11.9445 1.73086 12.0879 2.06205C12.2313 2.39324 12.2809 2.75749 12.2313 3.11497C12.1817 3.47245 12.0348 3.80942 11.8066 4.08905C11.5784 4.36867 11.2778 4.5802 10.9375 4.7005V5.25C10.9375 5.83016 10.7071 6.38656 10.2968 6.7968C9.88658 7.20703 9.33019 7.4375 8.75002 7.4375H5.25002C5.01796 7.4375 4.7954 7.52969 4.63131 7.69378C4.46721 7.85788 4.37502 8.08044 4.37502 8.3125V9.2995C4.81313 9.45432 5.18239 9.75903 5.41755 10.1598C5.6527 10.5605 5.7386 11.0315 5.66006 11.4895C5.58152 11.9475 5.34361 12.3629 4.98836 12.6624C4.63312 12.9619 4.18343 13.1262 3.71877 13.1262C3.25412 13.1262 2.80443 12.9619 2.44919 12.6624C2.09394 12.3629 1.85603 11.9475 1.77749 11.4895C1.69895 11.0315 1.78485 10.5605 2.02 10.1598C2.25516 9.75903 2.62442 9.45432 3.06252 9.2995V4.7005C2.62467 4.54569 2.25563 4.24108 2.02064 3.8405C1.78565 3.43992 1.69984 2.96916 1.77838 2.51143C1.85691 2.05369 2.09473 1.63846 2.44981 1.33912C2.80489 1.03978 3.25435 0.875596 3.71877 0.875596C4.18319 0.875596 4.63266 1.03978 4.98774 1.33912C5.34282 1.63846 5.58064 2.05369 5.65917 2.51143C5.73771 2.96916 5.6519 3.43992 5.41691 3.8405C5.18192 4.24108 4.81288 4.54569 4.37502 4.7005V6.307C4.651 6.1866 4.94892 6.12463 5.25002 6.125H8.75002C8.98209 6.125 9.20465 6.03281 9.36874 5.86872C9.53284 5.70462 9.62502 5.48207 9.62502 5.25V4.7005C9.24109 4.56476 8.90869 4.3133 8.67363 3.98076C8.43856 3.64823 8.3124 3.25098 8.31252 2.84375ZM3.06252 2.84375C3.06252 3.0178 3.13166 3.18472 3.25474 3.30779C3.37781 3.43086 3.54473 3.5 3.71877 3.5C3.89282 3.5 4.05974 3.43086 4.18281 3.30779C4.30588 3.18472 4.37502 3.0178 4.37502 2.84375C4.37502 2.6697 4.30588 2.50278 4.18281 2.37971C4.05974 2.25664 3.89282 2.1875 3.71877 2.1875C3.54473 2.1875 3.37781 2.25664 3.25474 2.37971C3.13166 2.50278 3.06252 2.6697 3.06252 2.84375ZM10.2813 2.1875C10.1072 2.1875 9.94031 2.25664 9.81724 2.37971C9.69416 2.50278 9.62502 2.6697 9.62502 2.84375C9.62502 3.0178 9.69416 3.18472 9.81724 3.30779C9.94031 3.43086 10.1072 3.5 10.2813 3.5C10.4553 3.5 10.6222 3.43086 10.7453 3.30779C10.8684 3.18472 10.9375 3.0178 10.9375 2.84375C10.9375 2.6697 10.8684 2.50278 10.7453 2.37971C10.6222 2.25664 10.4553 2.1875 10.2813 2.1875ZM3.71877 10.5C3.54473 10.5 3.37781 10.5691 3.25474 10.6922C3.13166 10.8153 3.06252 10.9822 3.06252 11.1563C3.06252 11.3303 3.13166 11.4972 3.25474 11.6203C3.37781 11.7434 3.54473 11.8125 3.71877 11.8125C3.89282 11.8125 4.05974 11.7434 4.18281 11.6203C4.30588 11.4972 4.37502 11.3303 4.37502 11.1563C4.37502 10.9822 4.30588 10.8153 4.18281 10.6922C4.05974 10.5691 3.89282 10.5 3.71877 10.5Z" fill="white"/>
</svg>
