<svg width="7" height="7" viewBox="0 0 7 7" fill="none" xmlns="http://www.w3.org/2000/svg">
<g clip-path="url(#clip0_15_741)">
<path d="M4.15626 1.42187C4.15632 1.24141 4.20597 1.06445 4.29981 0.910305C4.39364 0.756165 4.52804 0.630784 4.68832 0.547865C4.84859 0.464946 5.02858 0.42768 5.2086 0.440139C5.38863 0.452599 5.56176 0.514304 5.70909 0.618512C5.85641 0.72272 5.97226 0.86542 6.04396 1.03102C6.11567 1.19661 6.14047 1.37874 6.11567 1.55748C6.09086 1.73622 6.0174 1.9047 5.90331 2.04452C5.78922 2.18433 5.6389 2.29009 5.46876 2.35024V2.62499C5.46876 2.91507 5.35353 3.19327 5.14841 3.39839C4.94329 3.60351 4.66509 3.71874 4.37501 3.71874H2.62501C2.50898 3.71874 2.3977 3.76484 2.31565 3.84688C2.23361 3.92893 2.18751 4.04021 2.18751 4.15624V4.64974C2.40656 4.72715 2.5912 4.87951 2.70877 5.07989C2.82635 5.28026 2.8693 5.51576 2.83003 5.74474C2.79076 5.97373 2.6718 6.18145 2.49418 6.33121C2.31656 6.48096 2.09171 6.5631 1.85939 6.5631C1.62706 6.5631 1.40221 6.48096 1.22459 6.33121C1.04697 6.18145 0.928013 5.97373 0.888744 5.74474C0.849476 5.51576 0.892425 5.28026 1.01 5.07989C1.12758 4.87951 1.31221 4.72715 1.53126 4.64974V2.35024C1.31233 2.27284 1.12781 2.12053 1.01032 1.92024C0.892827 1.71995 0.849922 1.48457 0.889189 1.25571C0.928456 1.02684 1.04737 0.819224 1.22491 0.669552C1.40244 0.519881 1.62718 0.43779 1.85939 0.43779C2.0916 0.43779 2.31633 0.519881 2.49387 0.669552C2.67141 0.819224 2.79032 1.02684 2.82959 1.25571C2.86885 1.48457 2.82595 1.71995 2.70845 1.92024C2.59096 2.12053 2.40644 2.27284 2.18751 2.35024V3.15349C2.3255 3.09329 2.47446 3.06231 2.62501 3.06249H4.37501C4.49104 3.06249 4.60232 3.0164 4.68437 2.93435C4.76642 2.8523 4.81251 2.74103 4.81251 2.62499V2.35024C4.62054 2.28237 4.45434 2.15664 4.33681 1.99037C4.21928 1.82411 4.1562 1.62548 4.15626 1.42187ZM1.53126 1.42187C1.53126 1.50889 1.56583 1.59235 1.62737 1.65389C1.6889 1.71542 1.77236 1.74999 1.85939 1.74999C1.94641 1.74999 2.02987 1.71542 2.09141 1.65389C2.15294 1.59235 2.18751 1.50889 2.18751 1.42187C2.18751 1.33484 2.15294 1.25138 2.09141 1.18985C2.02987 1.12831 1.94641 1.09374 1.85939 1.09374C1.77236 1.09374 1.6889 1.12831 1.62737 1.18985C1.56583 1.25138 1.53126 1.33484 1.53126 1.42187ZM5.14064 1.09374C5.05361 1.09374 4.97015 1.12831 4.90862 1.18985C4.84708 1.25138 4.81251 1.33484 4.81251 1.42187C4.81251 1.50889 4.84708 1.59235 4.90862 1.65389C4.97015 1.71542 5.05361 1.74999 5.14064 1.74999C5.22766 1.74999 5.31112 1.71542 5.37266 1.65389C5.43419 1.59235 5.46876 1.50889 5.46876 1.42187C5.46876 1.33484 5.43419 1.25138 5.37266 1.18985C5.31112 1.12831 5.22766 1.09374 5.14064 1.09374ZM1.85939 5.24999C1.77236 5.24999 1.6889 5.28456 1.62737 5.3461C1.56583 5.40763 1.53126 5.49109 1.53126 5.57812C1.53126 5.66514 1.56583 5.7486 1.62737 5.81014C1.6889 5.87167 1.77236 5.90624 1.85939 5.90624C1.94641 5.90624 2.02987 5.87167 2.09141 5.81014C2.15294 5.7486 2.18751 5.66514 2.18751 5.57812C2.18751 5.49109 2.15294 5.40763 2.09141 5.3461C2.02987 5.28456 1.94641 5.24999 1.85939 5.24999Z" fill="#858585"/>
</g>
<defs>
<clipPath id="clip0_15_741">
<rect width="7" height="7" fill="white"/>
</clipPath>
</defs>
</svg>
