<svg width="14" height="14" viewBox="0 0 14 14" fill="none" xmlns="http://www.w3.org/2000/svg">
<path d="M8.31252 2.84374C8.31263 2.48283 8.41195 2.12889 8.59962 1.82061C8.78728 1.51233 9.05608 1.26157 9.37663 1.09573C9.69719 0.929892 10.0572 0.85536 10.4172 0.880279C10.7773 0.905198 11.1235 1.02861 11.4182 1.23702C11.7128 1.44544 11.9445 1.73084 12.0879 2.06203C12.2313 2.39323 12.2809 2.75747 12.2313 3.11496C12.1817 3.47244 12.0348 3.80941 11.8066 4.08903C11.5784 4.36866 11.2778 4.58018 10.9375 4.70049V5.24999C10.9375 5.83015 10.7071 6.38655 10.2968 6.79678C9.88658 7.20702 9.33019 7.43749 8.75002 7.43749H5.25002C5.01796 7.43749 4.7954 7.52967 4.63131 7.69377C4.46721 7.85786 4.37502 8.08042 4.37502 8.31249V9.29949C4.81313 9.4543 5.18239 9.75902 5.41755 10.1598C5.6527 10.5605 5.7386 11.0315 5.66006 11.4895C5.58152 11.9475 5.34361 12.3629 4.98836 12.6624C4.63312 12.9619 4.18343 13.1262 3.71877 13.1262C3.25412 13.1262 2.80443 12.9619 2.44919 12.6624C2.09394 12.3629 1.85603 11.9475 1.77749 11.4895C1.69895 11.0315 1.78485 10.5605 2.02 10.1598C2.25516 9.75902 2.62442 9.4543 3.06252 9.29949V4.70049C2.62467 4.54568 2.25563 4.24107 2.02064 3.84048C1.78565 3.4399 1.69984 2.96914 1.77838 2.51141C1.85691 2.05368 2.09473 1.63845 2.44981 1.3391C2.80489 1.03976 3.25435 0.87558 3.71877 0.87558C4.18319 0.87558 4.63266 1.03976 4.98774 1.3391C5.34282 1.63845 5.58064 2.05368 5.65917 2.51141C5.73771 2.96914 5.6519 3.4399 5.41691 3.84048C5.18192 4.24107 4.81288 4.54568 4.37502 4.70049V6.30699C4.651 6.18658 4.94892 6.12461 5.25002 6.12499H8.75002C8.98209 6.12499 9.20465 6.0328 9.36874 5.8687C9.53284 5.70461 9.62502 5.48205 9.62502 5.24999V4.70049C9.24109 4.56474 8.90869 4.31328 8.67363 3.98075C8.43856 3.64821 8.3124 3.25096 8.31252 2.84374ZM3.06252 2.84374C3.06252 3.01778 3.13166 3.1847 3.25474 3.30777C3.37781 3.43085 3.54473 3.49999 3.71877 3.49999C3.89282 3.49999 4.05974 3.43085 4.18281 3.30777C4.30588 3.1847 4.37502 3.01778 4.37502 2.84374C4.37502 2.66969 4.30588 2.50277 4.18281 2.3797C4.05974 2.25663 3.89282 2.18749 3.71877 2.18749C3.54473 2.18749 3.37781 2.25663 3.25474 2.3797C3.13166 2.50277 3.06252 2.66969 3.06252 2.84374ZM10.2813 2.18749C10.1072 2.18749 9.94031 2.25663 9.81724 2.3797C9.69416 2.50277 9.62502 2.66969 9.62502 2.84374C9.62502 3.01778 9.69416 3.1847 9.81724 3.30777C9.94031 3.43085 10.1072 3.49999 10.2813 3.49999C10.4553 3.49999 10.6222 3.43085 10.7453 3.30777C10.8684 3.1847 10.9375 3.01778 10.9375 2.84374C10.9375 2.66969 10.8684 2.50277 10.7453 2.3797C10.6222 2.25663 10.4553 2.18749 10.2813 2.18749ZM3.71877 10.5C3.54473 10.5 3.37781 10.5691 3.25474 10.6922C3.13166 10.8153 3.06252 10.9822 3.06252 11.1562C3.06252 11.3303 3.13166 11.4972 3.25474 11.6203C3.37781 11.7433 3.54473 11.8125 3.71877 11.8125C3.89282 11.8125 4.05974 11.7433 4.18281 11.6203C4.30588 11.4972 4.37502 11.3303 4.37502 11.1562C4.37502 10.9822 4.30588 10.8153 4.18281 10.6922C4.05974 10.5691 3.89282 10.5 3.71877 10.5Z" fill="black"/>
</svg>
