<svg width="14" height="14" viewBox="0 0 14 14" fill="none" xmlns="http://www.w3.org/2000/svg">
<path d="M3.255 3.25499C3.37805 3.1321 3.54485 3.06307 3.71875 3.06307C3.89266 3.06307 4.05946 3.1321 4.1825 3.25499L7 6.07249L9.8175 3.25499C9.89772 3.16861 9.99974 3.10546 10.1128 3.07219C10.2259 3.03893 10.3459 3.03679 10.4601 3.06599C10.5743 3.09519 10.6785 3.15466 10.7618 3.23812C10.845 3.32158 10.9042 3.42596 10.9331 3.54024C10.9624 3.65432 10.9603 3.77417 10.9272 3.88719C10.8941 4.00021 10.8312 4.10222 10.745 4.18249L7.9275 6.99999L10.745 9.81749C10.8314 9.8977 10.8945 9.99973 10.9278 10.1128C10.9611 10.2259 10.9632 10.3459 10.934 10.4601C10.9048 10.5743 10.8453 10.6785 10.7619 10.7618C10.6784 10.845 10.574 10.9042 10.4598 10.9331C10.3457 10.9624 10.2258 10.9603 10.1128 10.9272C9.99979 10.8941 9.89778 10.8312 9.8175 10.745L7 7.92749L4.1825 10.745C4.05802 10.8608 3.89348 10.9239 3.72345 10.921C3.55342 10.9181 3.39116 10.8493 3.27075 10.7292C3.15066 10.6088 3.08193 10.4466 3.07899 10.2765C3.07605 10.1065 3.13914 9.94197 3.255 9.81749L6.0725 6.99999L3.255 4.18249C3.13211 4.05944 3.06308 3.89265 3.06308 3.71874C3.06308 3.54483 3.13211 3.37804 3.255 3.25499Z" fill="black"/>
</svg>
