<svg width="16" height="16" viewBox="0 0 16 16" fill="none" xmlns="http://www.w3.org/2000/svg">
<path d="M7.78 12.53C7.63937 12.6705 7.44875 12.7493 7.25 12.7493C7.05125 12.7493 6.86062 12.6705 6.72 12.53L2.47 8.28C2.32955 8.13938 2.25066 7.94876 2.25066 7.75001C2.25066 7.55125 2.32955 7.36063 2.47 7.22001L6.72 2.97001C6.86226 2.8376 7.05031 2.76549 7.24463 2.76885C7.43894 2.77221 7.62439 2.85076 7.762 2.98801C7.89924 3.12561 7.97779 3.31106 7.98115 3.50538C7.98451 3.69969 7.91241 3.88774 7.78 4.03001L4.81 7.00001H12.25C12.4489 7.00001 12.6397 7.07902 12.7803 7.21968C12.921 7.36033 13 7.55109 13 7.75001C13 7.94892 12.921 8.13968 12.7803 8.28033C12.6397 8.42099 12.4489 8.50001 12.25 8.50001H4.81L7.78 11.47C7.92045 11.6106 7.99934 11.8013 7.99934 12C7.99934 12.1988 7.92045 12.3894 7.78 12.53Z" fill="white"/>
</svg>
