<svg width="14" height="14" viewBox="0 0 14 14" fill="none" xmlns="http://www.w3.org/2000/svg">
<path d="M3.255 3.25501C3.37805 3.13211 3.54485 3.06308 3.71875 3.06308C3.89266 3.06308 4.05946 3.13211 4.1825 3.25501L7 6.0725L9.8175 3.25501C9.89772 3.16862 9.99974 3.10547 10.1128 3.07221C10.2259 3.03895 10.3459 3.0368 10.4601 3.066C10.5743 3.09521 10.6785 3.15467 10.7618 3.23814C10.845 3.3216 10.9042 3.42597 10.9331 3.54025C10.9624 3.65433 10.9603 3.77418 10.9272 3.8872C10.8941 4.00022 10.8312 4.10223 10.745 4.18251L7.9275 7.00001L10.745 9.81751C10.8314 9.89772 10.8945 9.99975 10.9278 10.1128C10.9611 10.2259 10.9632 10.3459 10.934 10.4601C10.9048 10.5743 10.8453 10.6785 10.7619 10.7618C10.6784 10.845 10.574 10.9042 10.4598 10.9331C10.3457 10.9624 10.2258 10.9603 10.1128 10.9272C9.99979 10.8941 9.89778 10.8312 9.8175 10.745L7 7.92751L4.1825 10.745C4.05802 10.8609 3.89348 10.924 3.72345 10.921C3.55342 10.9181 3.39116 10.8493 3.27075 10.7293C3.15066 10.6089 3.08193 10.4466 3.07899 10.2766C3.07605 10.1065 3.13914 9.94198 3.255 9.81751L6.0725 7.00001L3.255 4.18251C3.13211 4.05946 3.06308 3.89266 3.06308 3.71875C3.06308 3.54485 3.13211 3.37805 3.255 3.25501Z" fill="white"/>
</svg>
