<svg width="7" height="7" viewBox="0 0 7 7" fill="none" xmlns="http://www.w3.org/2000/svg">
<g clip-path="url(#clip0_15_743)">
<path d="M4.94113 0.430493L6.56951 2.05887C6.65669 2.14608 6.72151 2.25306 6.75847 2.3707C6.79542 2.48835 6.80342 2.61318 6.78176 2.73457C6.76011 2.85597 6.70946 2.97034 6.63412 3.06796C6.55877 3.16557 6.46096 3.24355 6.34901 3.29524L5.76845 3.56343C5.58319 3.64914 5.41976 3.7757 5.29042 3.93361C5.16107 4.09152 5.06918 4.27667 5.02163 4.47518L4.76613 5.54881C4.62745 6.13156 3.90338 6.33631 3.47988 5.91281L2.51563 4.94856L0.778759 6.68499C0.748309 6.71544 0.712159 6.7396 0.672374 6.75608C0.632589 6.77256 0.589948 6.78104 0.546884 6.78104C0.503821 6.78104 0.46118 6.77256 0.421395 6.75608C0.381609 6.7396 0.34546 6.71544 0.315009 6.68499C0.284559 6.65454 0.260405 6.61839 0.243925 6.57861C0.227446 6.53882 0.218964 6.49618 0.218964 6.45312C0.218964 6.41005 0.227446 6.36741 0.243925 6.32763C0.260405 6.28784 0.284559 6.25169 0.315009 6.22124L2.05145 4.48437L1.0872 3.52012C0.663697 3.09662 0.868447 2.37256 1.4512 2.23387L2.52482 1.97837C2.72344 1.93109 2.90873 1.8393 3.06667 1.70993C3.22462 1.58055 3.35111 1.41698 3.43657 1.23156L3.70476 0.650993C3.75646 0.539041 3.83443 0.441232 3.93205 0.365886C4.02966 0.29054 4.14403 0.239888 4.26543 0.218238C4.38683 0.196587 4.51166 0.20458 4.6293 0.241535C4.74695 0.27849 4.85392 0.343314 4.94113 0.430493ZM2.74882 4.25381L3.94407 5.44862C3.95784 5.46238 3.97502 5.47222 3.99386 5.47712C4.01269 5.48203 4.0325 5.48181 4.05122 5.47651C4.06995 5.4712 4.08692 5.46099 4.10039 5.44694C4.11385 5.43289 4.12332 5.41549 4.12782 5.39656L4.38332 4.32293C4.45379 4.02779 4.59029 3.75247 4.78255 3.5177C4.9748 3.28294 5.2178 3.09483 5.49326 2.96756L6.07426 2.69937C6.09028 2.69199 6.10427 2.68085 6.11505 2.66689C6.12583 2.65294 6.13308 2.63658 6.13617 2.61922C6.13926 2.60186 6.13811 2.58401 6.13282 2.56719C6.12752 2.55037 6.11824 2.53508 6.10576 2.52262L4.47738 0.894243C4.46493 0.881762 4.44964 0.872479 4.43282 0.867184C4.41599 0.861889 4.39814 0.860739 4.38078 0.863833C4.36342 0.866927 4.34707 0.874173 4.33311 0.884953C4.31916 0.895733 4.30801 0.909727 4.30063 0.925743L4.03245 1.50674C3.90522 1.78224 3.71714 2.02527 3.48236 2.21753C3.24759 2.40979 2.97224 2.54627 2.67707 2.61668L1.60345 2.87218C1.58451 2.87668 1.56712 2.88615 1.55306 2.89961C1.53901 2.91308 1.5288 2.93005 1.52349 2.94878C1.51819 2.9675 1.51798 2.98731 1.52288 3.00614C1.52778 3.02498 1.53762 3.04217 1.55138 3.05593L2.7462 4.25118L2.74882 4.25381Z" fill="#858585"/>
</g>
<defs>
<clipPath id="clip0_15_743">
<rect width="7" height="7" fill="white"/>
</clipPath>
</defs>
</svg>
