<svg width="6" height="7" viewBox="0 0 6 7" fill="none" xmlns="http://www.w3.org/2000/svg">
<path d="M6.38421e-07 1.09375C6.38421e-07 0.803669 0.115235 0.52547 0.320353 0.320352C0.52547 0.115234 0.80367 0 1.09375 0L4.92188 0C5.0089 0 5.09236 0.0345702 5.15389 0.0961056C5.21543 0.157641 5.25 0.241101 5.25 0.328125V5.79688C5.25 5.8839 5.21543 5.96736 5.15389 6.02889C5.09236 6.09043 5.0089 6.125 4.92188 6.125H3.82813C3.7411 6.125 3.65764 6.09043 3.59611 6.02889C3.53457 5.96736 3.5 5.8839 3.5 5.79688C3.5 5.70985 3.53457 5.62639 3.59611 5.56486C3.65764 5.50332 3.7411 5.46875 3.82813 5.46875H4.59375V4.59375H1.09375C1.0076 4.59376 0.923369 4.61921 0.851622 4.6669C0.779876 4.71459 0.723807 4.78241 0.690446 4.86184C0.657085 4.94127 0.647918 5.02878 0.664094 5.1134C0.68027 5.19802 0.72107 5.27598 0.781376 5.3375C0.811539 5.36829 0.835341 5.40473 0.851423 5.44472C0.867505 5.48472 0.875553 5.52749 0.875106 5.57059C0.874659 5.61369 0.865726 5.65629 0.848818 5.69594C0.83191 5.73559 0.807358 5.77152 0.776563 5.80169C0.745768 5.83185 0.709334 5.85565 0.66934 5.87173C0.629346 5.88782 0.586576 5.89586 0.543473 5.89542C0.500369 5.89497 0.457775 5.88604 0.418123 5.86913C0.378472 5.85222 0.342539 5.82767 0.312376 5.79688C0.111875 5.59251 -0.000308793 5.31755 6.38421e-07 5.03125V1.09375ZM4.59375 0.65625H1.09375C0.977718 0.65625 0.866438 0.702344 0.784391 0.784391C0.702344 0.866438 0.656251 0.977718 0.656251 1.09375V4.0285C0.794213 3.96821 0.943191 3.93722 1.09375 3.9375H4.59375V0.65625ZM1.3125 5.35938C1.3125 5.33037 1.32402 5.30255 1.34454 5.28204C1.36505 5.26152 1.39287 5.25 1.42188 5.25H2.95313C2.98213 5.25 3.00995 5.26152 3.03047 5.28204C3.05098 5.30255 3.0625 5.33037 3.0625 5.35938V6.78125C3.0625 6.80156 3.05684 6.82147 3.04617 6.83875C3.03549 6.85603 3.02021 6.86999 3.00204 6.87908C2.98387 6.88816 2.96353 6.89201 2.9433 6.89018C2.92307 6.88836 2.90375 6.88094 2.8875 6.86875L2.25313 6.39319C2.23422 6.37892 2.21118 6.3712 2.1875 6.3712C2.16382 6.3712 2.14078 6.37892 2.12188 6.39319L1.4875 6.86875C1.47125 6.88094 1.45193 6.88836 1.4317 6.89018C1.41147 6.89201 1.39113 6.88816 1.37296 6.87908C1.35479 6.86999 1.33951 6.85603 1.32884 6.83875C1.31816 6.82147 1.3125 6.80156 1.3125 6.78125V5.35938Z" fill="#858585"/>
</svg>
